<svg xmlns="http://www.w3.org/2000/svg" viewBox="0 0 212.22 241.94"><defs><style>.cls-1{fill:#b2b2b2;}.cls-1,.cls-2,.cls-4{stroke:#1d1d1b;stroke-miterlimit:10;}.cls-2{fill:#3aaa35;}.cls-3{fill:#1d1d1b;}.cls-4{fill:none;}</style></defs><g id="Слой_2" data-name="Слой 2"><g id="Слой_1-2" data-name="Слой 1"><path class="cls-1" d="M.67,241.44c2.1-7.13,4.41-14.22,6.25-21.41q5.55-21.59,8.9-43.54c1.71-11,2.85-22.17,6.9-32.82,2.9-7.62,6.41-15,14.42-19.8,4.82-2.88,10.3-4.65,15.76-6.44,8.39-2.76,16.95-5.11,25.06-8.55,6-2.56,8.56-6.44,9.12-12.32.63-6.48,0-12-6.38-16.18A6.21,6.21,0,0,1,79,78.26C75.7,72.67,72.8,67,67.14,62.63c-3.24-2.47-3.72-6.49-4-10.07s1.12-6.72,6.26-7a54.33,54.33,0,0,1,1.09-20.73C73.8,11.11,85.28,2.15,101.63.71c18.19-1.6,31.94,6.14,37.81,18.05a34.31,34.31,0,0,1,3.43,16.12c-.07,3.33,0,6.66,0,9.86,6,3.4,7.47,7,5.12,12.9-1.51,3.73-3.37,7.26-7.62,9.33-1.91.92-2.4,2.76-3.05,4.37a30.59,30.59,0,0,1-9.12,12.3c-2,1.61-3,3.36-2.7,5.76.22,2,.05,4.06.08,6.09.07,5.74,2.94,9.88,8.87,12.59A232.52,232.52,0,0,0,163,118.36c15.45,4.73,24,14.24,27.8,27.77,2.9,10.29,4.14,20.78,6,31.21,3.37,19,6.66,38,13,56.54.85,2.47,2.24,4.86,1.91,7.56h-32a47.13,47.13,0,0,0-2.52-11c-4.26-13.33-8.92-26.58-12.27-40.13-.51-2-.79-4.17-2.75-6.34A164.93,164.93,0,0,0,158.89,211c-.32,10.13-.17,20.27-.22,30.4h-105c-.18-14.47.25-29-1.22-43.41a86.1,86.1,0,0,0-2.61-15.15,8.85,8.85,0,0,0-1.21,1.4,9.9,9.9,0,0,0-.7,2.07,264.61,264.61,0,0,1-11,37.77c-2.08,5.62-4,11.35-4.29,17.32Z"/><path class="cls-2" d="M190.31,145.79c-4.89-25.87-35.68-28.7-56.35-38l-26.53,32.74L77.48,108.54c-19.84,8.61-49.14,10-55.24,34.79-5.91,16.28-6.23,33.46-9.91,50.18l32.37,4.22c1.36-4.54,1.89-9.32,3.45-13.79a9.34,9.34,0,0,1,1.21-1.41c4.83,19.41,3.42,38.88,3.83,58.57h105c.09-19.47-.71-38,3.46-57.48,4.14,6.52,2.19,6.64,5.74,16.42.07.26.15.51.22.77l32.45-4.58C196.73,179.46,193.89,162.57,190.31,145.79Z"/><path class="cls-3" d="M52.39,175.5c2.06-4.4,4.3-8.7,6.59-13s4.66-8.49,7.06-12.69,4.89-8.35,7.45-12.46,5.16-8.2,7.94-12.18c-2.06,4.4-4.29,8.7-6.59,13s-4.66,8.48-7.07,12.68-4.89,8.35-7.45,12.46S55.17,171.51,52.39,175.5Z"/><path class="cls-3" d="M159.64,179c-2.7-4.37-5.22-8.84-7.69-13.33s-4.85-9-7.2-13.58-4.61-9.16-6.8-13.79-4.35-9.29-6.31-14c2.7,4.37,5.23,8.83,7.69,13.33s4.85,9,7.2,13.58,4.61,9.16,6.81,13.79S157.68,174.2,159.64,179Z"/><line class="cls-4" x1="71.79" y1="110.75" x2="108.49" y2="150.91"/><line class="cls-4" x1="108.49" y1="150.91" x2="139.3" y2="111.25"/></g></g></svg>