<svg xmlns="http://www.w3.org/2000/svg" viewBox="0 0 82.3 126.92"><defs><style>.cls-1{fill:none;stroke:#1d1d1b;stroke-miterlimit:10;stroke-width:2px;}.cls-2,.cls-3{fill:#1d1d1b;}.cls-3{font-size:15px;font-family:Arial-BoldMT, Arial;font-weight:700;}.cls-4{fill:#fff;}</style></defs><g id="Слой_2" data-name="Слой 2"><g id="Слой_1-2" data-name="Слой 1"><line class="cls-1" x1="1.09" y1="16.63" x2="68.18" y2="16.63"/><rect class="cls-2" x="0.09" y="10.13" width="2" height="13"/><polygon class="cls-2" points="82.3 16.63 62.4 24.77 67.12 16.63 62.4 8.51 82.3 16.63"/><text class="cls-3" transform="translate(18.72 12.87)">4 in</text><line class="cls-1" y1="102.73" x2="82.2" y2="102.73"/><line class="cls-1" x1="13.76" y1="100.39" x2="13.76" y2="108.89"/><line class="cls-1" x1="40.87" y1="100.39" x2="40.87" y2="108.89"/><line class="cls-1" x1="67.69" y1="100.39" x2="67.69" y2="108.89"/><text class="cls-3" transform="translate(9.59 121.27)">1</text><text class="cls-3" transform="translate(36.93 121.27)">2</text><text class="cls-3" transform="translate(63.52 121.27)">3</text><rect class="cls-2" x="0.38" y="24.52" width="27.15" height="74.37"/><path class="cls-4" d="M14.9,43.58a18.86,18.86,0,0,1,2-10.09,31.29,31.29,0,0,1,3.19-4.86c.25-.31,4.19-4.21,4.53-3.64a12.05,12.05,0,0,1,1.31,2.58,20,20,0,0,1-.63,12.67,38.23,38.23,0,0,1-3.49,6.48,13,13,0,0,1-4.61,4.9c-1.51.82-2-3.84-2.08-4.71C15,45.78,14.94,44.67,14.9,43.58Z"/><path class="cls-4" d="M14.87,66.74c0-.65,0-1.29,0-1.91a16.43,16.43,0,0,1,2.26-8.59c1.62-2.88,4-6.82,7.43-8.14,2.67,3.42,2.54,8.63,1.58,12.56a26.88,26.88,0,0,1-3.68,8.16A36.07,36.07,0,0,1,20,72.35c-.51.62-2.31,2.83-3.35,2.35a1.59,1.59,0,0,1-.69-.8C14.88,71.71,14.88,69.17,14.87,66.74Z"/><path class="cls-4" d="M14.87,89.49c-.91-6.85,2.9-12,7.24-17A9.69,9.69,0,0,1,24.53,71a13.44,13.44,0,0,1,1.36,2.56,20.31,20.31,0,0,1-.59,12.68,30,30,0,0,1-3,5.73C21.2,93.7,20,95.82,18.25,97.07c-.26.2-.91.74-1.26.74s-.73-.52-.95-.86a6.24,6.24,0,0,1-.85-2.7C15,92.67,15,91.07,14.87,89.49Z"/><path class="cls-4" d="M13.09,66.52c-.24,2.3-.36,4.63-.77,6.91-.33,1.84-1.62,2-2.81.63C3.25,67-.55,59.26,2.12,49.93c.2-.68.75-1.78,1.14-1.78a3.41,3.41,0,0,1,2.26,1C10.07,54.2,13.9,59.51,13.09,66.52Z"/><path class="cls-4" d="M13.07,43.54c-.23,2.23-.37,4.48-.73,6.69-.28,1.73-1.58,2.3-2.73.79-2.51-3.33-5.3-6.59-7-10.38A17,17,0,0,1,1.42,33,18.31,18.31,0,0,1,3.27,25,6.17,6.17,0,0,1,6.51,27.1C10.65,31.76,13.87,37.39,13.07,43.54Z"/><path class="cls-4" d="M13.15,89.59c-.05.89-.14,1.79-.25,2.67a23.06,23.06,0,0,1-.69,4.54,1.38,1.38,0,0,1-2.53.37C7,93.86,4.15,90.35,2.52,86.47c-1.76-4.22-1.31-9-.38-13.31.1-.45.35-2,1.11-2a3.38,3.38,0,0,1,2.27,1c2.87,3.18,5.61,6.62,6.9,10.61A18.74,18.74,0,0,1,13.15,89.59Z"/><rect class="cls-2" x="27.53" y="24.52" width="27.15" height="74.37"/><path class="cls-4" d="M42.05,43.58a18.86,18.86,0,0,1,2-10.09,31.29,31.29,0,0,1,3.19-4.86c.25-.31,4.19-4.21,4.53-3.64a12.05,12.05,0,0,1,1.31,2.58,20.08,20.08,0,0,1-.63,12.67,38.23,38.23,0,0,1-3.49,6.48,13,13,0,0,1-4.61,4.9c-1.51.82-2-3.84-2.08-4.71C42.16,45.78,42.09,44.67,42.05,43.58Z"/><path class="cls-4" d="M42,66.74c0-.65,0-1.29,0-1.91a16.51,16.51,0,0,1,2.25-8.59c1.63-2.88,4-6.82,7.44-8.14,2.67,3.42,2.54,8.63,1.58,12.56a26.88,26.88,0,0,1-3.68,8.16,36.07,36.07,0,0,1-2.41,3.53c-.51.62-2.31,2.83-3.35,2.35a1.59,1.59,0,0,1-.69-.8C42,71.71,42,69.17,42,66.74Z"/><path class="cls-4" d="M42,89.49c-.91-6.85,2.9-12,7.24-17A9.69,9.69,0,0,1,51.68,71,13.44,13.44,0,0,1,53,73.6a20.38,20.38,0,0,1-.59,12.68,30,30,0,0,1-3,5.73c-1.12,1.69-2.36,3.81-4.07,5.06-.26.2-.91.74-1.26.74s-.73-.52-1-.86a6.24,6.24,0,0,1-.85-2.7C42.17,92.67,42.15,91.07,42,89.49Z"/><path class="cls-4" d="M40.24,66.52c-.24,2.3-.36,4.63-.77,6.91-.33,1.84-1.62,2-2.82.63-6.25-7.07-10-14.8-7.38-24.13.19-.68.74-1.78,1.14-1.78a3.41,3.41,0,0,1,2.26,1C37.22,54.2,41.05,59.51,40.24,66.52Z"/><path class="cls-4" d="M40.22,43.54c-.23,2.23-.37,4.48-.73,6.69-.28,1.73-1.58,2.3-2.73.79-2.51-3.33-5.31-6.59-7-10.38A17,17,0,0,1,28.57,33,18.31,18.31,0,0,1,30.42,25a6.17,6.17,0,0,1,3.24,2.08C37.8,31.76,41,37.39,40.22,43.54Z"/><path class="cls-4" d="M40.3,89.59c0,.89-.14,1.79-.25,2.67a23.06,23.06,0,0,1-.69,4.54,1.38,1.38,0,0,1-2.53.37c-2.71-3.31-5.54-6.82-7.16-10.7-1.76-4.22-1.31-9-.38-13.31.09-.45.35-2,1.11-2a3.38,3.38,0,0,1,2.27,1c2.87,3.18,5.61,6.62,6.9,10.61A18.74,18.74,0,0,1,40.3,89.59Z"/><rect class="cls-2" x="54.68" y="24.52" width="27.15" height="74.37"/><path class="cls-4" d="M69.2,43.58a18.86,18.86,0,0,1,2-10.09,31.29,31.29,0,0,1,3.19-4.86c.25-.31,4.19-4.21,4.52-3.64a11.65,11.65,0,0,1,1.32,2.58,20.08,20.08,0,0,1-.63,12.67,38.23,38.23,0,0,1-3.49,6.48,13,13,0,0,1-4.61,4.9c-1.51.82-2-3.84-2.08-4.71C69.31,45.78,69.24,44.67,69.2,43.58Z"/><path class="cls-4" d="M69.17,66.74c0-.65,0-1.29,0-1.91a16.51,16.51,0,0,1,2.25-8.59c1.63-2.88,4-6.82,7.44-8.14,2.67,3.42,2.54,8.63,1.58,12.56a26.88,26.88,0,0,1-3.68,8.16,36.07,36.07,0,0,1-2.41,3.53C73.8,73,72,75.18,71,74.7a1.54,1.54,0,0,1-.69-.8C69.18,71.71,69.18,69.17,69.17,66.74Z"/><path class="cls-4" d="M69.17,89.49c-.91-6.85,2.9-12,7.24-17A9.69,9.69,0,0,1,78.83,71a13.44,13.44,0,0,1,1.36,2.56,20.31,20.31,0,0,1-.6,12.68,28.92,28.92,0,0,1-3,5.73c-1.11,1.69-2.35,3.81-4.06,5.06-.26.2-.91.74-1.26.74s-.73-.52-1-.86a6.24,6.24,0,0,1-.85-2.7C69.31,92.67,69.3,91.07,69.17,89.49Z"/><path class="cls-4" d="M67.39,66.52c-.25,2.3-.36,4.63-.77,6.91-.33,1.84-1.62,2-2.82.63-6.25-7.07-10-14.8-7.38-24.13.19-.68.74-1.78,1.14-1.78a3.41,3.41,0,0,1,2.26,1C64.37,54.2,68.2,59.51,67.39,66.52Z"/><path class="cls-4" d="M67.37,43.54c-.23,2.23-.37,4.48-.73,6.69-.28,1.73-1.58,2.3-2.73.79-2.52-3.33-5.31-6.59-7-10.38A17,17,0,0,1,55.72,33,18.44,18.44,0,0,1,57.56,25a6.16,6.16,0,0,1,3.25,2.08C65,31.76,68.17,37.39,67.37,43.54Z"/><path class="cls-4" d="M67.45,89.59c0,.89-.14,1.79-.25,2.67a23.06,23.06,0,0,1-.69,4.54,1.38,1.38,0,0,1-2.53.37c-2.71-3.31-5.54-6.82-7.16-10.7-1.76-4.22-1.31-9-.38-13.31.09-.45.35-2,1.11-2a3.38,3.38,0,0,1,2.27,1c2.87,3.18,5.6,6.62,6.9,10.61A18.74,18.74,0,0,1,67.45,89.59Z"/></g></g></svg>