<svg xmlns="http://www.w3.org/2000/svg" viewBox="0 0 132.25 77.29"><defs><style>.cls-1{fill:none;stroke:#1d1d1b;stroke-miterlimit:10;stroke-width:2px;}.cls-2,.cls-3{fill:#1d1d1b;}.cls-3{font-size:15px;font-family:Arial-BoldMT, Arial;font-weight:700;}.cls-4{fill:#fff;}</style></defs><g id="Слой_2" data-name="Слой 2"><g id="Слой_1-2" data-name="Слой 1"><line class="cls-1" x1="16.63" y1="73.9" x2="16.63" y2="15.59"/><rect class="cls-2" x="10.13" y="72.9" width="13" height="2"/><polygon class="cls-2" points="16.64 1.47 24.77 21.37 16.64 16.65 8.51 21.37 16.64 1.47"/><text class="cls-3" transform="translate(12.87 57.41) rotate(-90)">4 in</text><line class="cls-1" x1="111.12" y1="74.9" x2="111.12"/><line class="cls-1" x1="108.77" y1="65.61" x2="117.28" y2="65.61"/><line class="cls-1" x1="108.77" y1="38.5" x2="117.28" y2="38.5"/><line class="cls-1" x1="108.77" y1="11.68" x2="117.28" y2="11.68"/><text class="cls-3" transform="translate(117.74 71.65)">1</text><text class="cls-3" transform="translate(117.74 43.75)">2</text><text class="cls-3" transform="translate(117.74 17.42)">3</text><rect class="cls-2" x="24.49" y="0.56" width="27.15" height="74.37"/><path class="cls-4" d="M39,19.62A18.86,18.86,0,0,1,41,9.53a30.68,30.68,0,0,1,3.18-4.85C44.43,4.36,48.36.46,48.7,1A11.75,11.75,0,0,1,50,3.61a20,20,0,0,1-.63,12.67,38.18,38.18,0,0,1-3.48,6.48,13,13,0,0,1-4.62,4.91c-1.51.82-2-3.85-2.07-4.71C39.13,21.83,39.05,20.72,39,19.62Z"/><path class="cls-4" d="M39,42.78c0-.65,0-1.28,0-1.91a16.42,16.42,0,0,1,2.25-8.59c1.63-2.88,4-6.82,7.43-8.14,2.68,3.43,2.55,8.63,1.59,12.56a26.9,26.9,0,0,1-3.69,8.16,37.81,37.81,0,0,1-2.4,3.53c-.52.62-2.31,2.83-3.36,2.35a1.66,1.66,0,0,1-.69-.79C39,47.75,39,45.21,39,42.78Z"/><path class="cls-4" d="M39,65.54c-.91-6.86,2.91-12,7.24-17a9.38,9.38,0,0,1,2.42-1.43A12.33,12.33,0,0,1,50,49.64a20.31,20.31,0,0,1-.59,12.68,29.46,29.46,0,0,1-3,5.73c-1.11,1.69-2.36,3.81-4.07,5.07-.26.19-.91.73-1.26.73s-.73-.51-1-.86a6.33,6.33,0,0,1-.85-2.7C39.13,68.72,39.11,67.12,39,65.54Z"/><path class="cls-4" d="M37.2,42.56c-.24,2.31-.35,4.63-.76,6.91-.33,1.84-1.63,2-2.82.63C27.36,43,23.57,35.3,26.24,26c.19-.67.74-1.77,1.13-1.78a3.39,3.39,0,0,1,2.26,1C34.18,30.24,38,35.56,37.2,42.56Z"/><path class="cls-4" d="M37.18,19.58c-.23,2.23-.36,4.48-.72,6.69-.28,1.73-1.59,2.31-2.73.79-2.52-3.33-5.31-6.59-7-10.37A17.21,17.21,0,0,1,25.53,9a18.34,18.34,0,0,1,1.85-7.94,6.2,6.2,0,0,1,3.24,2.08C34.76,7.8,38,13.43,37.18,19.58Z"/><path class="cls-4" d="M37.26,65.63Q37.19,67,37,68.3a23.06,23.06,0,0,1-.69,4.54,1.38,1.38,0,0,1-2.54.37c-2.7-3.31-5.53-6.81-7.15-10.69-1.76-4.23-1.31-9-.38-13.32.09-.44.35-2,1.1-2a3.4,3.4,0,0,1,2.27,1c2.87,3.18,5.61,6.62,6.9,10.61A18.55,18.55,0,0,1,37.26,65.63Z"/><rect class="cls-2" x="51.64" y="0.56" width="27.15" height="74.37"/><path class="cls-4" d="M66.17,19.62a18.86,18.86,0,0,1,2-10.09,30,30,0,0,1,3.18-4.85C71.58,4.36,75.51.46,75.85,1a11.75,11.75,0,0,1,1.31,2.57,20,20,0,0,1-.63,12.67,38.18,38.18,0,0,1-3.48,6.48,13.1,13.1,0,0,1-4.62,4.91c-1.51.82-2-3.85-2.07-4.71C66.28,21.83,66.2,20.72,66.17,19.62Z"/><path class="cls-4" d="M66.13,42.78c0-.65,0-1.28,0-1.91a16.42,16.42,0,0,1,2.25-8.59c1.63-2.88,4-6.82,7.43-8.14,2.68,3.43,2.55,8.63,1.59,12.56a26.9,26.9,0,0,1-3.69,8.16,37.81,37.81,0,0,1-2.4,3.53c-.52.62-2.31,2.83-3.36,2.35a1.66,1.66,0,0,1-.69-.79C66.14,47.75,66.14,45.21,66.13,42.78Z"/><path class="cls-4" d="M66.13,65.54c-.91-6.86,2.91-12,7.24-17a9.38,9.38,0,0,1,2.42-1.43,12.83,12.83,0,0,1,1.36,2.55,20.31,20.31,0,0,1-.59,12.68,30,30,0,0,1-3,5.73c-1.11,1.69-2.36,3.81-4.07,5.07-.26.19-.91.73-1.26.73s-.73-.51-1-.86a6.2,6.2,0,0,1-.85-2.7C66.28,68.72,66.26,67.12,66.13,65.54Z"/><path class="cls-4" d="M64.35,42.56c-.24,2.31-.35,4.63-.76,6.91-.33,1.84-1.63,2-2.82.63C54.51,43,50.72,35.3,53.39,26c.19-.67.74-1.77,1.13-1.78a3.41,3.41,0,0,1,2.26,1C61.33,30.24,65.16,35.56,64.35,42.56Z"/><path class="cls-4" d="M64.33,19.58c-.23,2.23-.36,4.48-.72,6.69-.28,1.73-1.59,2.31-2.73.79-2.52-3.33-5.31-6.59-7-10.37A17.35,17.35,0,0,1,52.68,9a18.34,18.34,0,0,1,1.85-7.94,6.2,6.2,0,0,1,3.24,2.08C61.91,7.8,65.13,13.43,64.33,19.58Z"/><path class="cls-4" d="M64.41,65.63c0,.9-.14,1.79-.24,2.67a23.06,23.06,0,0,1-.69,4.54,1.38,1.38,0,0,1-2.54.37c-2.7-3.31-5.53-6.81-7.15-10.69-1.76-4.23-1.31-9-.39-13.32.1-.44.36-2,1.11-2a3.4,3.4,0,0,1,2.27,1c2.87,3.18,5.61,6.62,6.9,10.61A18.55,18.55,0,0,1,64.41,65.63Z"/><rect class="cls-2" x="78.79" y="0.56" width="27.15" height="74.37"/><path class="cls-4" d="M93.32,19.62a18.77,18.77,0,0,1,2-10.09,30,30,0,0,1,3.18-4.85C98.73,4.36,102.66.46,103,1a11.75,11.75,0,0,1,1.31,2.57,20,20,0,0,1-.63,12.67,37.53,37.53,0,0,1-3.49,6.48,13,13,0,0,1-4.61,4.91c-1.51.82-2-3.85-2.07-4.71C93.43,21.83,93.35,20.72,93.32,19.62Z"/><path class="cls-4" d="M93.28,42.78c0-.65,0-1.28,0-1.91a16.42,16.42,0,0,1,2.25-8.59c1.63-2.88,4-6.82,7.43-8.14,2.68,3.43,2.54,8.63,1.59,12.56a26.9,26.9,0,0,1-3.69,8.16,37.81,37.81,0,0,1-2.4,3.53c-.52.62-2.31,2.83-3.36,2.35a1.66,1.66,0,0,1-.69-.79C93.29,47.75,93.29,45.21,93.28,42.78Z"/><path class="cls-4" d="M93.28,65.54c-.91-6.86,2.91-12,7.24-17a9.38,9.38,0,0,1,2.42-1.43,13.37,13.37,0,0,1,1.36,2.55,20.31,20.31,0,0,1-.59,12.68,30,30,0,0,1-3,5.73c-1.12,1.69-2.36,3.81-4.07,5.07-.26.19-.91.73-1.26.73s-.73-.51-1-.86a6.2,6.2,0,0,1-.85-2.7C93.43,68.72,93.41,67.12,93.28,65.54Z"/><path class="cls-4" d="M91.5,42.56c-.24,2.31-.35,4.63-.76,6.91-.33,1.84-1.63,2-2.82.63C81.66,43,77.87,35.3,80.54,26c.19-.67.74-1.77,1.13-1.78a3.41,3.41,0,0,1,2.26,1C88.48,30.24,92.31,35.56,91.5,42.56Z"/><path class="cls-4" d="M91.48,19.58c-.23,2.23-.36,4.48-.72,6.69-.28,1.73-1.59,2.31-2.73.79-2.52-3.33-5.31-6.59-7-10.37A17.35,17.35,0,0,1,79.83,9a18.34,18.34,0,0,1,1.85-7.94,6.2,6.2,0,0,1,3.24,2.08C89.06,7.8,92.28,13.43,91.48,19.58Z"/><path class="cls-4" d="M91.56,65.63c0,.9-.14,1.79-.24,2.67a23.06,23.06,0,0,1-.69,4.54,1.38,1.38,0,0,1-2.54.37c-2.7-3.31-5.53-6.81-7.15-10.69-1.76-4.23-1.31-9-.39-13.32.1-.44.35-2,1.11-2a3.4,3.4,0,0,1,2.27,1c2.87,3.18,5.61,6.62,6.9,10.61A18.55,18.55,0,0,1,91.56,65.63Z"/></g></g></svg>