<svg xmlns="http://www.w3.org/2000/svg" viewBox="0 0 214.55 243.94"><defs><style>.cls-1,.cls-3,.cls-4{fill:none;stroke-miterlimit:10;}.cls-1{stroke:#be1622;}.cls-1,.cls-4{stroke-width:4px;}.cls-2{fill:#878787;opacity:0.6;}.cls-3{stroke:#1d1d1b;stroke-width:3px;}.cls-4{stroke:#e6332a;}</style></defs><g id="Слой_2" data-name="Слой 2"><g id="Слой_1-2" data-name="Слой 1"><path class="cls-1" d="M132.25,100.73c0-2.88-11.17-5.21-25-5.21s-25,2.33-25,5.21"/><path class="cls-1" d="M132.25,101.31c0-2.88-11.17-5.21-25-5.21s-25,2.33-25,5.21"/><path class="cls-1" d="M132.25,101.89c0-2.88-11.17-5.21-25-5.21s-25,2.33-25,5.21"/><path class="cls-1" d="M132.25,102.47c0-2.88-11.17-5.21-25-5.21s-25,2.33-25,5.21"/><path class="cls-1" d="M132.25,103.05c0-2.87-11.17-5.21-25-5.21s-25,2.34-25,5.21"/><path class="cls-1" d="M132.25,103.64c0-2.88-11.17-5.22-25-5.22s-25,2.34-25,5.22"/><path class="cls-1" d="M132.25,104.22c0-2.88-11.17-5.22-25-5.22s-25,2.34-25,5.22"/><path class="cls-1" d="M132.25,104.8c0-2.88-11.17-5.21-25-5.21s-25,2.33-25,5.21"/><path class="cls-1" d="M132.25,105.38c0-2.88-11.17-5.21-25-5.21s-25,2.33-25,5.21"/><path class="cls-1" d="M132.25,106c0-2.88-11.17-5.21-25-5.21s-25,2.33-25,5.21"/><path class="cls-1" d="M132.25,106.54c0-2.88-11.17-5.21-25-5.21s-25,2.33-25,5.21"/><path class="cls-1" d="M132.25,107.12c0-2.87-11.17-5.21-25-5.21s-25,2.34-25,5.21"/><path class="cls-2" d="M2,242.44c2.1-7.13,4.41-14.22,6.25-21.41,3.7-14.39,6.63-28.91,8.9-43.54,1.71-11,2.84-22.17,6.9-32.82,2.9-7.62,6.41-15,14.41-19.8,4.83-2.88,10.31-4.65,15.77-6.44,8.39-2.76,16.95-5.11,25.05-8.55,6-2.56,8.56-6.44,9.13-12.32.62-6.48,0-12-6.38-16.18a6.1,6.1,0,0,1-1.71-2.12C77,73.67,74.13,68,68.47,63.63c-3.23-2.47-3.71-6.49-4-10.07s1.12-6.72,6.26-7a54.33,54.33,0,0,1,1.09-20.73C75.14,12.11,86.61,3.15,103,1.71c18.19-1.6,31.93,6.14,37.81,18.05a34.43,34.43,0,0,1,3.43,16.12c-.07,3.33,0,6.66,0,9.86,6.05,3.4,7.48,7,5.12,12.9-1.5,3.73-3.36,7.26-7.62,9.33-1.9.92-2.4,2.76-3.05,4.37a30.57,30.57,0,0,1-9.11,12.3c-2,1.61-3,3.36-2.7,5.76.22,2,0,4.06.07,6.09.08,5.74,2.94,9.88,8.87,12.59a233.12,233.12,0,0,0,28.55,10.28c15.46,4.73,24,14.24,27.81,27.77,2.9,10.29,4.14,20.78,6,31.21,3.37,19,6.65,38,13,56.54.85,2.47,2.23,4.86,1.91,7.56H181a47.13,47.13,0,0,0-2.52-11c-4.27-13.33-8.92-26.58-12.28-40.13-.5-2-.78-4.17-2.74-6.34A163.85,163.85,0,0,0,160.23,212c-.32,10.13-.17,20.27-.22,30.4H55c-.18-14.47.25-29-1.23-43.41a85.19,85.19,0,0,0-2.61-15.15,8.58,8.58,0,0,0-1.2,1.4,9.94,9.94,0,0,0-.71,2.07,263.32,263.32,0,0,1-11,37.77c-2.07,5.62-3.95,11.35-4.28,17.32Z"/><path class="cls-3" d="M2,242.44c2.1-7.13,4.41-14.22,6.25-21.41,3.7-14.39,6.63-28.91,8.9-43.54,1.71-11,2.84-22.17,6.9-32.82,2.9-7.62,6.41-15,14.41-19.8,4.83-2.88,10.31-4.65,15.77-6.44,8.39-2.76,16.95-5.11,25.05-8.55,6-2.56,8.56-6.44,9.13-12.32.62-6.48,0-12-6.38-16.18a6.1,6.1,0,0,1-1.71-2.12C77,73.67,74.13,68,68.47,63.63c-3.23-2.47-3.71-6.49-4-10.07s1.12-6.72,6.26-7a54.33,54.33,0,0,1,1.09-20.73C75.14,12.11,86.61,3.15,103,1.71c18.19-1.6,31.93,6.14,37.81,18.05a34.43,34.43,0,0,1,3.43,16.12c-.07,3.33,0,6.66,0,9.86,6.05,3.4,7.48,7,5.12,12.9-1.5,3.73-3.36,7.26-7.62,9.33-1.9.92-2.4,2.76-3.05,4.37a30.57,30.57,0,0,1-9.11,12.3c-2,1.61-3,3.36-2.7,5.76.22,2,0,4.06.07,6.09.08,5.74,2.94,9.88,8.87,12.59a233.12,233.12,0,0,0,28.55,10.28c15.46,4.73,24,14.24,27.81,27.77,2.9,10.29,4.14,20.78,6,31.21,3.37,19,6.65,38,13,56.54.85,2.47,2.23,4.86,1.91,7.56H181a47.13,47.13,0,0,0-2.52-11c-4.27-13.33-8.92-26.58-12.28-40.13-.5-2-.78-4.17-2.74-6.34A163.85,163.85,0,0,0,160.23,212c-.32,10.13-.17,20.27-.22,30.4H55c-.18-14.47.25-29-1.23-43.41a85.19,85.19,0,0,0-2.61-15.15,8.58,8.58,0,0,0-1.2,1.4,9.94,9.94,0,0,0-.71,2.07,263.32,263.32,0,0,1-11,37.77c-2.07,5.62-3.95,11.35-4.28,17.32Z"/><path class="cls-4" d="M82.35,100.73c0,2.88,11.17,5.21,25,5.21s25-2.33,25-5.21"/><path class="cls-4" d="M82.35,101.31c0,2.88,11.17,5.21,25,5.21s25-2.33,25-5.21"/><path class="cls-4" d="M82.35,101.89c0,2.88,11.17,5.21,25,5.21s25-2.33,25-5.21"/><path class="cls-4" d="M82.35,102.47c0,2.88,11.17,5.21,25,5.21s25-2.33,25-5.21"/><path class="cls-4" d="M82.35,103.05c0,2.88,11.17,5.22,25,5.22s25-2.34,25-5.22"/><path class="cls-4" d="M82.35,103.64c0,2.87,11.17,5.21,25,5.21s25-2.34,25-5.21"/><path class="cls-4" d="M82.35,104.22c0,2.88,11.17,5.21,25,5.21s25-2.33,25-5.21"/><path class="cls-4" d="M82.35,104.8c0,2.88,11.17,5.21,25,5.21s25-2.33,25-5.21"/><path class="cls-4" d="M82.35,105.38c0,2.88,11.17,5.21,25,5.21s25-2.33,25-5.21"/><path class="cls-4" d="M82.35,106c0,2.88,11.17,5.21,25,5.21s25-2.33,25-5.21"/><path class="cls-4" d="M82.35,106.54c0,2.88,11.17,5.21,25,5.21s25-2.33,25-5.21"/><path class="cls-4" d="M82.35,107.12c0,2.88,11.17,5.22,25,5.22s25-2.34,25-5.22"/></g></g></svg>