<svg xmlns="http://www.w3.org/2000/svg" xmlns:xlink="http://www.w3.org/1999/xlink" viewBox="0 0 167.05 144.39"><defs><style>.cls-1,.cls-15,.cls-16,.cls-18,.cls-20,.cls-24,.cls-25,.cls-27,.cls-4,.cls-5,.cls-6,.cls-7,.cls-8,.cls-9{fill:none;}.cls-12,.cls-2{fill:#a29fcf;}.cls-3{fill:#999;}.cls-3,.cls-5,.cls-7,.cls-8,.cls-9{stroke:#999;}.cls-10,.cls-11,.cls-13,.cls-16,.cls-20,.cls-24,.cls-25,.cls-27,.cls-3,.cls-4,.cls-5,.cls-6,.cls-7,.cls-8,.cls-9{stroke-linecap:round;stroke-linejoin:round;}.cls-3,.cls-4,.cls-5,.cls-7,.cls-8,.cls-9{stroke-width:0.15px;}.cls-3,.cls-4,.cls-5{stroke-dasharray:1 0.5 1 0.5;}.cls-15,.cls-27,.cls-4{stroke:#b3b3b3;}.cls-10,.cls-12,.cls-13,.cls-21,.cls-22,.cls-23,.cls-6{stroke:#000;}.cls-10,.cls-11,.cls-12,.cls-13,.cls-14,.cls-21,.cls-22,.cls-23,.cls-6{stroke-width:0.25px;}.cls-8{stroke-dasharray:0.96 0.48;}.cls-9{stroke-dasharray:0.96 0.48 0.96 0.48;}.cls-10{fill:#fcee21;}.cls-11{fill:#daedbd;}.cls-11,.cls-14{stroke:#333;}.cls-12,.cls-14,.cls-15,.cls-18,.cls-21,.cls-22,.cls-23{stroke-miterlimit:10;}.cls-13,.cls-23{fill:#e76f51;}.cls-14{fill:#fdcfe1;}.cls-15{stroke-width:0.5px;}.cls-16{stroke:#ccc;stroke-width:0.35px;}.cls-16,.cls-18,.cls-20{stroke-dasharray:3.6 0.72 0.72 0.72;}.cls-17{fill:#ccc;}.cls-18,.cls-20{stroke:#e6007e;}.cls-18,.cls-20,.cls-24,.cls-25,.cls-27{stroke-width:0.4px;}.cls-19{fill:#e6007e;}.cls-21{fill:url(#Новый_образец_узора_3);}.cls-22{fill:url(#Новый_образец_узора_3-3);}.cls-24,.cls-25{stroke:#c6c5ba;}.cls-24{stroke-dasharray:3 3;}.cls-26{fill:#c6c5ba;}.cls-28{fill:#b3b3b3;}</style><pattern id="Новый_образец_узора_3" data-name="Новый образец узора 3" width="15.66" height="13.11" patternTransform="translate(-0.11 0.44)" patternUnits="userSpaceOnUse" viewBox="0 0 15.66 13.11"><rect class="cls-1" width="15.66" height="13.11"/><rect class="cls-2" width="15.66" height="13.11"/></pattern><pattern id="Новый_образец_узора_3-3" data-name="Новый образец узора 3" width="15.66" height="13.11" patternTransform="translate(0.17 0.44)" patternUnits="userSpaceOnUse" viewBox="0 0 15.66 13.11"><rect class="cls-1" width="15.66" height="13.11"/><rect class="cls-2" width="15.66" height="13.11"/></pattern></defs><g id="Слой_2" data-name="Слой 2"><g id="Слой_3" data-name="Слой 3"><line class="cls-3" x1="47.66" y1="93.34" x2="45.39" y2="88.1"/><line class="cls-3" x1="56.38" y1="98.77" x2="50.89" y2="96.61"/><g id="LINE"><line class="cls-4" x1="108.62" y1="98.88" x2="113.98" y2="96.81"/><line class="cls-4" x1="129.6" y1="144.26" x2="149.49" y2="132.37"/></g><line class="cls-5" x1="47.76" y1="66.15" x2="45.64" y2="71.49"/><line class="cls-5" x1="50.89" y1="62.96" x2="56.37" y2="60.54"/><g id="LINE-2" data-name="LINE"><line class="cls-4" x1="114" y1="62.67" x2="108.53" y2="60.72"/></g><g id="LINE-3" data-name="LINE"><line class="cls-4" x1="117.24" y1="65.94" x2="119.61" y2="71.41"/></g><g id="LINE-4" data-name="LINE"><line class="cls-6" x1="149.36" y1="28.8" x2="151.03" y2="30.47"/></g><g id="LINE-5" data-name="LINE"><line class="cls-4" x1="129.88" y1="15.54" x2="149.65" y2="27.66"/></g><g id="LINE-6" data-name="LINE"><line class="cls-4" x1="152.45" y1="30.47" x2="164.58" y2="50.23"/></g><g id="LINE-10" data-name="LINE"><line class="cls-5" x1="35.4" y1="144.26" x2="15.63" y2="132.14"/></g><g id="LINE-11" data-name="LINE"><line class="cls-6" x1="15.35" y1="130.72" x2="13.68" y2="129.05"/></g><g id="LINE-12" data-name="LINE"><line class="cls-5" x1="35.02" y1="15.3" x2="15.26" y2="27.43"/></g><g id="LINE-13" data-name="LINE"><line class="cls-6" x1="15.35" y1="28.8" x2="13.68" y2="30.47"/></g><g id="LINE-14" data-name="LINE"><line class="cls-5" x1="0.42" y1="109.57" x2="12.55" y2="129.33"/></g><g id="LINE-15" data-name="LINE"><line class="cls-7" x1="12.2" y1="30.36" x2="11.94" y2="30.78"/><line class="cls-8" x1="11.69" y1="31.19" x2="11.06" y2="32.22"/><line class="cls-9" x1="10.93" y1="32.43" x2="0.46" y2="49.49"/><line class="cls-7" x1="0.34" y1="49.69" x2="0.08" y2="50.12"/></g><g id="POINT"><line class="cls-6" x1="82.36" y1="79.76" x2="82.36" y2="79.76"/></g><g id="LINE-16" data-name="LINE"><polygon class="cls-10" points="45.39 88.06 45.39 71.49 53.24 71.49 53.24 88.04 45.39 88.06"/></g><g id="LINE-17" data-name="LINE"><polygon class="cls-11" points="0.14 109.27 0.14 50.22 45.49 71.45 45.48 88.01 0.14 109.27"/></g><g id="LINE-18" data-name="LINE"><line class="cls-6" x1="15.35" y1="28.76" x2="13.64" y2="30.47"/></g><g id="LINE-19" data-name="LINE"><line class="cls-6" x1="130.81" y1="2.47" x2="130.81" y2="2.5"/></g><g id="LINE-20" data-name="LINE"><polygon class="cls-10" points="108.56 60.6 56.55 60.6 56.55 68.26 108.55 68.26 108.56 60.6"/></g><polygon class="cls-12" points="108.57 60.7 56.6 60.7 35.31 15.34 129.8 15.34 108.57 60.7"/><rect class="cls-12" x="34.04" y="1.17" width="96.95" height="14.26"/><g id="LINE-21" data-name="LINE"><line class="cls-6" x1="149.36" y1="28.84" x2="150.99" y2="30.47"/></g><g id="LINE-22" data-name="LINE"><line class="cls-6" x1="13.64" y1="129.05" x2="15.35" y2="130.76"/></g><g id="LINE-23" data-name="LINE"><line class="cls-6" x1="13.68" y1="129.05" x2="15.35" y2="130.72"/></g><g id="LINE-24" data-name="LINE"><line class="cls-6" x1="15.35" y1="28.8" x2="13.68" y2="30.47"/></g><g id="LINE-25" data-name="LINE"><line class="cls-4" x1="116.59" y1="94.56" x2="119.01" y2="88.97"/></g><g id="LINE-26" data-name="LINE"><rect class="cls-10" x="109.06" y="90.5" width="7.71" height="4.11" transform="translate(98.51 -52.73) rotate(45)"/></g><g id="LINE-27" data-name="LINE"><rect class="cls-13" x="108.29" y="110.96" width="50.18" height="4.11" transform="translate(118.98 -61.21) rotate(45)"/></g><g id="LINE-28" data-name="LINE"><rect class="cls-10" x="48.26" y="90.4" width="7.71" height="4.11" transform="translate(154.34 120.98) rotate(135)"/></g><g id="LINE-29" data-name="LINE"><rect class="cls-13" x="6.56" y="110.85" width="50.18" height="4.11" transform="translate(133.87 170.35) rotate(135)"/></g><g id="LINE-30" data-name="LINE"><rect class="cls-10" x="109.06" y="65.04" width="7.71" height="4.11" transform="translate(-14.37 99.49) rotate(-45)"/></g><g id="LINE-31" data-name="LINE"><rect class="cls-13" x="108.29" y="44.57" width="50.18" height="4.11" transform="translate(6.1 107.97) rotate(-45)"/></g><g id="LINE-32" data-name="LINE"><rect class="cls-10" x="48.33" y="65.09" width="7.71" height="4.11" transform="translate(41.61 151.52) rotate(-135)"/></g><g id="LINE-33" data-name="LINE"><rect class="cls-13" x="6.56" y="44.54" width="50.18" height="4.11" transform="translate(21.09 101.92) rotate(-135)"/></g><g id="LINE-34" data-name="LINE"><line class="cls-4" x1="164.79" y1="109.72" x2="152.66" y2="129.19"/></g><g id="LINE-35" data-name="LINE"><polygon class="cls-10" points="108.53 91.28 108.53 98.9 108.5 98.91 56.54 98.91 56.51 98.9 56.51 91.26 108.53 91.28"/></g><polygon class="cls-14" points="108.51 98.91 56.54 98.91 35.28 144.26 129.76 144.26 108.51 98.91"/><g id="LINE-36" data-name="LINE"><polygon class="cls-10" points="119.6 88.12 119.61 88.1 119.61 71.56 119.6 71.53 111.71 71.53 111.71 88.12 119.6 88.12"/></g><g id="LINE-37" data-name="LINE"><polygon class="cls-11" points="164.97 109.36 164.97 50.3 119.61 71.53 119.62 88.1 164.97 109.36"/></g><polyline class="cls-15" points="154.06 27.54 151.6 28.42 152.41 25.92"/><line class="cls-16" x1="156.22" y1="36.53" x2="157.74" y2="39.06"/><polygon class="cls-17" points="159.02 41.18 156 38.93 157.65 38.91 158.44 37.46 159.02 41.18"/><line class="cls-16" x1="143.41" y1="23.88" x2="140.89" y2="22.3"/><polygon class="cls-17" points="138.8 20.99 142.5 21.63 141.05 22.4 140.99 24.04 138.8 20.99"/><line class="cls-16" x1="156.3" y1="123.35" x2="157.86" y2="120.81"/><polygon class="cls-17" points="159.15 118.71 158.54 122.42 157.76 120.97 156.11 120.93 159.15 118.71"/><line class="cls-16" x1="143.32" y1="136.02" x2="140.75" y2="137.58"/><polygon class="cls-17" points="138.64 138.86 140.88 135.84 140.91 137.49 142.35 138.28 138.64 138.86"/><polyline class="cls-15" points="152.51 133.61 151.63 131.15 154.13 131.95"/><line class="cls-16" x1="8.82" y1="123.15" x2="7.26" y2="120.62"/><polygon class="cls-17" points="5.97 118.51 9.01 120.74 7.36 120.78 6.58 122.22 5.97 118.51"/><line class="cls-16" x1="21.59" y1="135.84" x2="24.11" y2="137.42"/><polygon class="cls-17" points="26.2 138.74 22.5 138.09 23.95 137.32 24.01 135.68 26.2 138.74"/><polyline class="cls-15" points="10.94 131.98 13.4 131.1 12.6 133.6"/><line class="cls-16" x1="8.69" y1="36.16" x2="7.14" y2="38.69"/><polygon class="cls-17" points="5.84 40.8 6.45 37.09 7.23 38.54 8.88 38.58 5.84 40.8"/><line class="cls-16" x1="21.48" y1="23.6" x2="24" y2="22.02"/><polygon class="cls-17" points="26.09 20.7 23.9 23.76 23.84 22.11 22.39 21.35 26.09 20.7"/><polyline class="cls-15" points="12.57 26.04 13.45 28.5 10.95 27.7"/><path class="cls-18" d="M23.35,1.93s-7.9-.55-12.85,3.48"/><polygon class="cls-19" points="8.57 7.47 10.19 3.49 10.69 5.3 12.52 5.77 8.57 7.47"/><path class="cls-18" d="M146.24,6.23c-3.17-3.31-8.64-4.36-12-4.7"/><polygon class="cls-19" points="131.46 1.38 135.54 0 134.49 1.56 135.33 3.25 131.46 1.38"/><path class="cls-20" d="M12.11,134.23a6.3,6.3,0,0,1-3.63,1.08c-4.56-.16-5.9-2.66-5.9-2.66"/><path class="cls-19" d="M13.93,132.65a12.32,12.32,0,0,1-3.84.74l1.75,1,.69,1.9A12.08,12.08,0,0,1,13.93,132.65Z"/><path class="cls-20" d="M165.81,135.48a10.22,10.22,0,0,1-3,3.14c-2.25,1.52-5.2.33-5.2.33"/><path class="cls-19" d="M166.83,133.29a12.06,12.06,0,0,1-3.2,2.25l2,.21,1.41,1.45A12.41,12.41,0,0,1,166.83,133.29Z"/><line class="cls-21" x1="33.93" y1="1.17" x2="33.93" y2="2.47"/><polyline class="cls-22" points="34.21 2.47 23.96 2.47 23.96 1.17 34.21 1.17"/><polyline class="cls-23" points="151 130.68 158.75 138.42 157.83 139.34 150.09 131.59"/><rect class="cls-24" x="40.24" y="55.64" width="84.6" height="48.14" rx="17.95"/><rect class="cls-24" x="29.12" y="44.3" width="106.82" height="70.65" rx="27.36"/><rect class="cls-24" x="18" y="32.95" width="129.05" height="93.17" rx="36.78"/><rect class="cls-24" x="6.88" y="21.6" width="151.28" height="115.69" rx="46.19"/><path class="cls-24" d="M127.43,13.48H37.57a2.23,2.23,0,0,1-2.17-2.29h0A2.23,2.23,0,0,1,37.57,8.9"/><path class="cls-24" d="M37.57,3.9h85.05"/><path class="cls-24" d="M125.26,3.8c1.19,0,2.17.14,2.17,1.4h0c0,1.26.47,3.7-2.51,3.7L39.08,8.69"/><line class="cls-25" x1="127.43" y1="13.48" x2="122.94" y2="13.48"/><polygon class="cls-26" points="120.11 13.48 124.09 11.86 123.15 13.48 124.09 15.11 120.11 13.48"/><line class="cls-25" x1="85.95" y1="21.6" x2="81.45" y2="21.6"/><polygon class="cls-26" points="78.63 21.6 82.61 19.98 81.67 21.6 82.61 23.23 78.63 21.6"/><line class="cls-25" x1="86.51" y1="32.95" x2="82.02" y2="32.95"/><polygon class="cls-26" points="79.2 32.95 83.18 31.32 82.23 32.95 83.18 34.58 79.2 32.95"/><line class="cls-25" x1="87.08" y1="44.32" x2="82.59" y2="44.32"/><polygon class="cls-26" points="79.77 44.32 83.75 42.7 82.8 44.32 83.75 45.95 79.77 44.32"/><line class="cls-25" x1="87.37" y1="55.64" x2="82.87" y2="55.64"/><polygon class="cls-26" points="80.05 55.64 84.03 54.02 83.08 55.64 84.03 57.27 80.05 55.64"/><line class="cls-25" x1="6.88" y1="77.01" x2="6.88" y2="81.5"/><polygon class="cls-26" points="6.88 84.32 5.25 80.34 6.88 81.29 8.51 80.34 6.88 84.32"/><line class="cls-25" x1="17.97" y1="76.49" x2="17.97" y2="80.98"/><polygon class="cls-26" points="17.97 83.81 16.35 79.83 17.97 80.77 19.6 79.83 17.97 83.81"/><line class="cls-25" x1="29.14" y1="76.26" x2="29.14" y2="80.76"/><polygon class="cls-26" points="29.14 83.58 27.51 79.6 29.14 80.55 30.76 79.6 29.14 83.58"/><line class="cls-25" x1="40.24" y1="75.64" x2="40.24" y2="80.13"/><polygon class="cls-26" points="40.24 82.96 38.62 78.98 40.24 79.92 41.87 78.98 40.24 82.96"/><line class="cls-25" x1="124.8" y1="83.24" x2="124.8" y2="78.75"/><polygon class="cls-26" points="124.8 75.92 126.43 79.9 124.8 78.96 123.18 79.9 124.8 75.92"/><line class="cls-25" x1="135.89" y1="83.75" x2="135.89" y2="79.26"/><polygon class="cls-26" points="135.9 76.44 137.52 80.42 135.9 79.47 134.27 80.42 135.9 76.44"/><line class="cls-25" x1="147.06" y1="83.98" x2="147.06" y2="79.49"/><polygon class="cls-26" points="147.06 76.67 148.68 80.64 147.06 79.7 145.43 80.64 147.06 76.67"/><line class="cls-25" x1="158.16" y1="84.61" x2="158.16" y2="80.11"/><polygon class="cls-26" points="158.16 77.29 159.79 81.27 158.16 80.32 156.54 81.27 158.16 77.29"/><line class="cls-25" x1="80.05" y1="137.29" x2="84.54" y2="137.29"/><polygon class="cls-26" points="87.37 137.29 83.39 138.92 84.33 137.29 83.39 135.66 87.37 137.29"/><line class="cls-25" x1="79.77" y1="126.08" x2="84.26" y2="126.08"/><polygon class="cls-26" points="87.08 126.08 83.1 127.71 84.05 126.08 83.1 124.46 87.08 126.08"/><line class="cls-25" x1="79.25" y1="114.93" x2="83.75" y2="114.93"/><polygon class="cls-26" points="86.57 114.93 82.59 116.56 83.53 114.93 82.59 113.31 86.57 114.93"/><line class="cls-25" x1="78.63" y1="103.81" x2="83.12" y2="103.81"/><polygon class="cls-26" points="85.95 103.81 81.97 105.43 82.91 103.81 81.97 102.18 85.95 103.81"/><line class="cls-25" x1="122.88" y1="3.9" x2="118.38" y2="3.9"/><polygon class="cls-26" points="115.56 3.9 119.54 2.27 118.6 3.9 119.54 5.52 115.56 3.9"/><line class="cls-25" x1="45.2" y1="3.9" x2="40.7" y2="3.9"/><polygon class="cls-26" points="37.88 3.9 41.86 2.27 40.92 3.9 41.86 5.52 37.88 3.9"/><line class="cls-25" x1="113.93" y1="8.9" x2="118.43" y2="8.9"/><polygon class="cls-26" points="121.25 8.9 117.27 10.52 118.21 8.9 117.27 7.27 121.25 8.9"/><line class="cls-25" x1="39.55" y1="8.7" x2="44.04" y2="8.7"/><polygon class="cls-26" points="46.87 8.7 42.89 10.32 43.83 8.7 42.89 7.07 46.87 8.7"/><rect class="cls-27" x="60.94" y="73.2" width="43.66" height="12.64" rx="6.32"/><line class="cls-27" x1="86.14" y1="73.2" x2="81.64" y2="73.2"/><polygon class="cls-28" points="78.82 73.2 82.8 71.57 81.86 73.2 82.8 74.83 78.82 73.2"/><line class="cls-27" x1="79.15" y1="85.84" x2="83.65" y2="85.84"/><polygon class="cls-28" points="86.47 85.84 82.49 87.46 83.44 85.84 82.49 84.21 86.47 85.84"/></g></g></svg>