<svg xmlns="http://www.w3.org/2000/svg" viewBox="0 0 317.73 297.47"><g id="Слой_2" data-name="Слой 2"><g id="Слой_1-2" data-name="Слой 1"><path d="M314.05,94.29c-4.72-5.09-10.47-5.45-19.84-1.25l-.63.29-11-5.91-.19-.49c-2.18-5.54-2.18-5.54-8.71-4.61l-.46.07L249.26,69.46l-.13-.66a17,17,0,0,1-.26-2.5c-.14-2.3-.27-3.43-1.9-4.18-2-.92-3.46,0-5.74,1.48l-1.32.88L216,51.51l.1-.94c.16-1.6.33-3.13.49-4.62.4-3.81.79-7.4,1.06-11a6.6,6.6,0,0,0-.56-3.14,3.12,3.12,0,0,0-3.83-1.76c-1.16.24-2.72.9-3,3.75-.22,2.58-.47,5.17-.75,8l-.58,6L167.11,25.22l10-5.43L197.85,8.56l.69-.37a17.29,17.29,0,0,0,2.54-1.54,3.51,3.51,0,0,0,1.1-4.82c-1-1.72-2.67-2.25-4.76-1.49a11.41,11.41,0,0,0-1.71.86l-.76.43L159.16,20.9l-2.39-1.26-3.37-1.79L144,12.79c-7.29-3.94-14.83-8-22.27-11.94-1.88-1-4.43-1.62-5.89,1-1.15,2.11-.38,4,2.31,5.51,2.42,1.39,4.95,2.73,7.39,4,1.19.63,2.37,1.25,3.55,1.89l13.42,7.26,8.63,4.67-33.43,18V40.9c0-.89,0-1.68,0-2.42,0-1.4,0-2.62,0-3.79C117.6,31.58,116.36,30,114,30h0c-.82,0-3.31,0-3.68,4.32a7.85,7.85,0,0,0,0,1,11,11,0,0,1-.07,1.6c-.37,2.64-.78,5.27-1.17,7.87l-.54,3.51L82.29,62.48l-.49-.09c-6.39-1.1-6.43-1-8.43,4.49l-.19.51-.47.25-4.56,2.48C64.67,72,61.07,74,57.46,75.85c-3.26,1.7-6.61,3.35-9.84,5l-3.34,1.65-.83.59L24.51,93.86l-.71-.4-1.63-1a25.35,25.35,0,0,0-2.6-1.44A14,14,0,0,0,4,93.87a14.71,14.71,0,0,0-3,15.57,13.8,13.8,0,0,0,14.81,8.06,13.81,13.81,0,0,0,11.71-11.57c.16-1,.24-2.11.32-3.24,0-.54.07-1.08.12-1.63l.07-.8,7.14-3.52,6.29,10.57-.24.64c-.06.17-.11.33-.16.48a4.48,4.48,0,0,1-.6,1.34c-.78,1.08-1.59,2.14-2.41,3.21l-1.32,1.72-1.5.11-1.73.12c-5,.23-5.79,1-5.87,5.77l0,1.74c-.12,5.51-.23,10.71,2.14,14.92l.35.61-.28.64c-3.19,7.4-3.2,15,0,24.07l.18.5-.2.5c-3.43,8.42-3.16,16.7.82,25.34l.15.31,0,.35c-.06,1.28-.15,2.55-.24,3.81-.46,6.77-.89,13.17,1.76,18.93l.26.55-.23.57c-3,7.44-2.93,15,.09,24.64l.18.59-.3.53c-2.8,4.95-2.89,13.91-.23,22.84l.11.35-.08.36c-.25,1.14-.51,2.16-.74,3.11a32.54,32.54,0,0,0-1,4.84,61,61,0,0,0-.05,7.65l0,.67A18.54,18.54,0,0,0,48.42,297.3c5.27.15,10.64.11,15.84.07l5.11,0a17.6,17.6,0,0,0,10.38-3.41c.82-.59,1.65-1.15,2.53-1.74l2.21-1.5.83.82c4.39,4.36,9.94,6.25,17.44,5.91,3.91-.18,7.87-.14,11.7-.09l4.36,0h.07a18.14,18.14,0,0,0,11.2-3.67c.72-.53,1.45-1,2.25-1.58.37-.25.77-.52,1.17-.81l1-.68.84.86c4.37,4.47,9.87,6.3,17.85,5.93,3.82-.17,7.7-.13,11.44-.08l4.13,0A18.39,18.39,0,0,0,180,293.71c.73-.54,1.47-1.06,2.18-1.56l1.73-1.22.82.56c8.25,5.7,8.78,5.87,18.92,5.87l2.65,0,2.67,0c1.08,0,2.16,0,3.24.06,7.32.32,14.92.13,20.56-6l.91-1,1,.86c5.14,4.28,9.28,6.11,13.82,6.11h1l6,0c4.57,0,9.3.08,13.93-.08,8.1-.28,13.82-4.21,16.55-11.37a29.72,29.72,0,0,0-.26-22.26l-.19-.46.14-.47c2.92-9.7,2.92-17.11,0-24l-.2-.48.15-.5c2.87-9.12,2.88-16.76,0-24l-.18-.47.15-.48c2.91-9,2.93-16.67.07-24.07l-.18-.46.15-.47c2.86-9.14,2.88-16.8.06-24.1l-.17-.46.14-.46c2.88-9.59,2.84-17.1-.13-24.35l-.26-.63.33-.59c2.11-3.83,2-8.28,2-13,0-.86,0-1.73,0-2.6,0-5.6-.24-5.87-6.39-7.21l-1.84-.4.89-1.66c2.84-5.27.19-9.32-2.88-14l-.95-1.46L275,94.37l2.86.24c.43,0,.77,0,1,.06a3.43,3.43,0,0,1,1.6.29c2.25,1.17,4.48,2.37,6.65,3.54l2.65,1.42.09.72c1.35,10.49,4.58,15.11,11.53,16.48a13.73,13.73,0,0,0,12.61-22.83ZM14.18,109.85H14a6.48,6.48,0,0,1-6.21-6A6.16,6.16,0,0,1,9.6,99.44a6.21,6.21,0,0,1,4.26-2,6.19,6.19,0,0,1,4.35,1.77,6.2,6.2,0,0,1,2,4.28A6.47,6.47,0,0,1,14.18,109.85Zm61.69,13,1,.15.18,1c1,5.42.29,9.54-2.19,12.24-2.11,2.29-5.38,3.44-9.73,3.44a29.35,29.35,0,0,1-3-.16L61,139.42l-.14-1.12c-.75-5.88.26-10.21,3-12.86S70.5,122,75.87,122.89Zm1,88.69A12,12,0,0,1,68.32,215a14,14,0,0,1-4.1-.62l-.74-.23-.21-.74a12.63,12.63,0,0,1,3-12.76,12.41,12.41,0,0,1,12.59-2.74l.72.23.21.73A12.59,12.59,0,0,1,76.84,211.58Zm0,25a12,12,0,0,1-8.47,3.4,13.86,13.86,0,0,1-4.12-.64l-.74-.23-.21-.74c-1.36-4.85-.24-9.63,3-12.78a12.54,12.54,0,0,1,12.57-2.7l.72.23.21.73A12.61,12.61,0,0,1,76.8,236.61ZM35.89,123.92l.16-1.11,1.12-.1c6-.56,10.28.6,12.81,3.43s3.11,6.81,2,12.19l-.2,1-1,.14a26.23,26.23,0,0,1-3.53.26c-3.72,0-6.6-1-8.6-3C36,134,35.07,129.73,35.89,123.92Zm.1,25.13.18-1,1-.16c5.33-.88,9.37,0,12,2.48s3.8,7,3.08,12.9l-.14,1.11-1.11.12a28.16,28.16,0,0,1-3.09.18c-4.29,0-7.53-1.14-9.63-3.41C35.76,158.6,35,154.48,36,149.05Zm-.25,25,.11-1.12,1.12-.14c5.77-.73,10,.26,12.63,3s3.43,6.81,2.54,12.35l-.16,1-1,.19a22.16,22.16,0,0,1-4.19.43,11,11,0,0,1-7.68-2.61C36.28,184.52,35.14,180.14,35.74,174.1ZM38.19,249l.2-.73.72-.24a12.23,12.23,0,0,1,12.45,2.47c3.37,3.18,4.57,8.09,3.22,13.13l-.23.86-.87.17a17.84,17.84,0,0,1-3.36.32,12.1,12.1,0,0,1-12.13-16Zm0-24.87.13-.89.86-.27a12.31,12.31,0,0,1,12.54,2.71c3.31,3.25,4.42,8.13,3,13.06l-.28,1-1,.05c-.65,0-1.29,0-1.91,0-5,0-8.61-1.19-10.85-3.63C38.25,233.55,37.45,229.6,38.2,224.11Zm16.85,64.2-.2,1-1,.14a28.23,28.23,0,0,1-3.84.28c-3.71,0-6.53-.92-8.55-2.78-2.7-2.48-3.86-6.55-3.55-12.42l.05-.89.82-.35a11.88,11.88,0,0,1,12.14,1.67C54.58,277.94,56.12,282.94,55.05,288.31Zm-.12-75.07-.23.84-.85.18a21.19,21.19,0,0,1-4.39.5,11.27,11.27,0,0,1-7.77-2.64c-2.95-2.65-4.19-7.19-3.58-13.13l.11-1,1-.21c5.15-1.11,9.85.09,12.9,3.29A12.78,12.78,0,0,1,54.93,213.24Zm1.22-92.18-9.21-6.14.48-1.1c2.71-6.11,1.66-11.46-3.14-15.89l-.77-.72.45-.94a19.62,19.62,0,0,1,9.72-9.84c2.92-1.34,5.82-3,8.89-4.66,1.46-.81,3-1.66,4.61-2.53l2.43-1.31-.35,2.73c-.78,6.18,1.49,10.94,3.89,16l.11.21c1.69,3.56.61,7-.67,9.82-.77,1.72-1.58,3.39-2.36,5l-.93,1.93-.2.41Zm6.63,30.39c2.49-3,6.86-4.25,13-3.84l1.11.08.19,1.1c1,5.68.17,10-2.41,12.67-2,2.17-5.13,3.26-9.17,3.26a26.14,26.14,0,0,1-3.1-.19l-1-.12-.23-.95C59.9,158.26,60.45,154.22,62.78,151.45Zm-1.87,37.92-.12-1.12c-.67-5.95.4-10.3,3.2-12.93,2.65-2.5,6.67-3.31,11.94-2.39l1,.17.18,1c1,5.47.17,9.6-2.36,12.28-2.09,2.22-5.26,3.33-9.46,3.33A28.6,28.6,0,0,1,62,189.5Zm15.72,97.56c-2,1.88-4.83,2.81-8.56,2.81a28.47,28.47,0,0,1-3.55-.24l-.88-.11-.28-.85a12.24,12.24,0,0,1,2.48-12.43c3.18-3.39,8-4.56,13.2-3.2l1,.26.06,1C80.46,280.24,79.33,284.41,76.63,286.93Zm1.12-26.43a12.53,12.53,0,0,1-10,4.51,17.2,17.2,0,0,1-3.37-.34l-1-.2-.14-1c-.78-5.7,0-9.75,2.48-12.41s6.54-3.83,12.44-3.52l.88,0,.35.82A11.82,11.82,0,0,1,77.75,260.5ZM88.16,199l.19-.74.72-.25a12.15,12.15,0,0,1,12.39,2.36c3.41,3.14,4.67,8.06,3.36,13.16l-.22.86-.86.18a17.47,17.47,0,0,1-3.53.38,12.59,12.59,0,0,1-9.31-3.75C88,208.14,87,203.69,88.16,199Zm-.22,25.43.06-.89.83-.33a11.83,11.83,0,0,1,12.22,1.8c3.61,3.05,5.09,8,4,13.32l-.21,1-1,.13a30.61,30.61,0,0,1-3.68.25c-3.83,0-6.71-.95-8.75-2.86C88.7,234.36,87.58,230.31,87.94,224.46Zm17.17,63.35-.06,1-1,.27a18.43,18.43,0,0,1-5,.75,10.58,10.58,0,0,1-6.79-2.2c-3.21-2.58-4.71-7.24-4.35-13.47L88,273l1.16-.15c5.76-.76,9.84.08,12.49,2.55S105.46,281.94,105.11,287.81Zm-.18-24.35-.23,1-1,.11a30.79,30.79,0,0,1-3.35.19c-4.08,0-7.1-1-9.18-3-2.59-2.52-3.63-6.56-3.18-12.34l.07-.91.85-.31a12,12,0,0,1,12.37,2.07C104.81,253.37,106.17,258.32,104.93,263.46Zm.91-71.53-.62,1.64-1.48-.95c-4.27-2.76-8.89-2.73-13.77-2.7-1.77,0-3.6,0-5.41-.1l-1.75-.12L83.3,188c2.17-7.45,3.68-15.59,0-24.61l-.21-.51.18-.51c3.15-8.77,3.1-16.33-.15-23.79l-.29-.65.35-.61c2.34-4.16,2.27-9.39,2.2-14.93v-.26c-.08-6.1-.31-6.39-6.1-7.83l-1.65-.41.7-1.55c.17-.39.35-.78.53-1.16.38-.81.75-1.62,1.08-2.43,2.53-6.16,2.23-12.05-.89-17.52-3.35-5.87-3.12-11.57.71-17.44a7.6,7.6,0,0,1,2.46-2.64c5.09-2.82,10.19-5.58,15.6-8.5l7-3.8.15,2.2c0,.68.1,1.29.15,1.86a24.26,24.26,0,0,1,.15,3.12A60.86,60.86,0,0,0,108,86.26a52.23,52.23,0,0,1,0,30.82c-3.79,12.44-3.68,25,.33,38.51C111.71,166.9,110.92,178.44,105.84,191.93Zm20.72,94.89a12.19,12.19,0,0,1-8.41,3.2,14.9,14.9,0,0,1-3.76-.5l-.72-.19-.25-.7a12.24,12.24,0,0,1,2.24-12.33c3.11-3.47,7.94-4.73,13.25-3.47l.89.21.17.89C131,279.11,129.77,283.81,126.56,286.82ZM115.94,201c3.2-3.32,8.11-4.48,13.12-3.09l1,.27.06,1c.36,6-.78,10.21-3.48,12.73-2,1.88-4.82,2.8-8.55,2.8a28.47,28.47,0,0,1-3.55-.24l-.89-.11-.28-.86A12.34,12.34,0,0,1,115.94,201Zm11.49,59.88A12.24,12.24,0,0,1,118,265a16.85,16.85,0,0,1-3.85-.46l-.87-.21-.19-.88c-1.09-5.15.12-9.85,3.31-12.88a12.75,12.75,0,0,1,12.2-2.77l.71.19.26.69A12.11,12.11,0,0,1,127.43,260.9Zm0-25a12.24,12.24,0,0,1-9.41,4,16.85,16.85,0,0,1-3.85-.46l-.87-.21-.19-.88c-1.09-5.15.12-9.85,3.31-12.88a12.75,12.75,0,0,1,12.2-2.77l.71.19.26.69A12.11,12.11,0,0,1,127.43,235.9Zm27.69,51.9-.05,1-1,.27a18.5,18.5,0,0,1-5,.77,10.5,10.5,0,0,1-6.74-2.18c-3.22-2.58-4.74-7.24-4.39-13.49L138,273l1.16-.15c5.73-.77,9.81.06,12.47,2.52S155.46,281.92,155.12,287.8ZM155,263.4l-.22,1-1,.12a29.82,29.82,0,0,1-3.53.22c-3.94,0-6.89-1-8.95-2.92-2.63-2.51-3.71-6.56-3.31-12.37l.06-.9.85-.33a11.93,11.93,0,0,1,12.29,1.94C154.73,253.23,156.16,258.18,155,263.4ZM138.2,224.12l.11-.88.84-.27a12.24,12.24,0,0,1,13,3.08,12,12,0,0,1,2.27,12.82l-.34.83-.9.05c-.65,0-1.28.05-1.88.05-4.92,0-8.4-1.17-10.61-3.57C138.26,233.61,137.45,229.65,138.2,224.12ZM155,213.31l-.19,1-1,.13a28,28,0,0,1-3.84.28c-3.71,0-6.52-.92-8.55-2.78-2.7-2.48-3.86-6.55-3.55-12.42l.05-.89.82-.35a11.89,11.89,0,0,1,12.14,1.66C154.63,203,156.14,207.85,155,213.31Zm21.5-1.31c-2,1.83-4.75,2.74-8.36,2.74a27.44,27.44,0,0,1-3.7-.27l-.9-.12-.26-.87A12.38,12.38,0,0,1,166,200.92c3.24-3.29,8.12-4.39,13.06-3l1,.28.05,1C180.44,205.31,179.27,209.48,176.54,212Zm.26,24.58a12.15,12.15,0,0,1-8.71,3.43,15.73,15.73,0,0,1-3.61-.43l-.76-.18-.25-.74a12.22,12.22,0,0,1,2.34-12.51c3.19-3.42,8.08-4.67,13.08-3.35l.83.22.19.84C181,228.87,179.91,233.51,176.8,236.58Zm-.22,50.22a12.21,12.21,0,0,1-8.45,3.22,15.11,15.11,0,0,1-3.73-.49l-.73-.19-.25-.71a12.28,12.28,0,0,1,2.25-12.34c3.11-3.46,7.93-4.72,13.24-3.46l.88.21.18.89C181,279.09,179.78,283.78,176.58,286.8Zm.3-25.27A12,12,0,0,1,168.3,265a14.08,14.08,0,0,1-4.06-.61l-.74-.22-.22-.74a12.61,12.61,0,0,1,2.93-12.74,12.46,12.46,0,0,1,12.61-2.79l.73.23.21.72A12.56,12.56,0,0,1,176.88,261.53Zm27.94-48-.22.86-.86.18a17.47,17.47,0,0,1-3.53.38,12.59,12.59,0,0,1-9.31-3.75c-3-3.09-4-7.54-2.74-12.2l.19-.74.72-.25a12.15,12.15,0,0,1,12.39,2.36C204.87,203.54,206.13,208.46,204.82,213.56Zm-.4,25.31-.34.83-.9.05c-.65,0-1.28.05-1.88.05-4.92,0-8.4-1.17-10.61-3.57-2.43-2.62-3.24-6.58-2.49-12.11l.11-.88.84-.27a12.24,12.24,0,0,1,13,3.08A12,12,0,0,1,204.42,238.87Zm-16.29,10.19.19-.74.72-.26a12.12,12.12,0,0,1,12.36,2.28c3.43,3.11,4.72,8,3.44,13.2l-.21.85-.86.19a16.82,16.82,0,0,1-3.6.4,12.57,12.57,0,0,1-9.2-3.67C188,258.24,187,253.77,188.13,249.06Zm16.8,39.18-.23.84-.85.18a21.27,21.27,0,0,1-4.39.5,11.26,11.26,0,0,1-7.77-2.64c-2.95-2.65-4.19-7.19-3.58-13.13l.11-1,1-.21c5.14-1.11,9.85.09,12.9,3.29A12.76,12.76,0,0,1,204.93,288.24Zm3.36-133c3.35,11.12,2.61,22.74-2.33,36.56l-.56,1.58-1.46-.81c-4.69-2.6-9.17-2.84-13.31-2.71-3.7.11-7.64.21-11.61,0-8.6-.48-14.29,1.38-19,6.21l-1,1.07-1-1.1c-5.71-6.18-13.12-6.43-20.23-6.17-4.81.19-9.55.25-14.56.31l-6.73.1-1.87,0,.47-1.81c.15-.57.32-1.16.49-1.76a38.56,38.56,0,0,0,1-4c2-11.15,1.75-20.21-.71-28.53-3.27-11-3.91-20.33-2-29.27.42-2,.92-3.95,1.41-5.86.68-2.67,1.38-5.42,1.84-8.14a55.3,55.3,0,0,0-1.29-25.07c-3.49-11.7-3.89-21.79-1.24-31.75l.15-.59,44.42-24.06,47.12,25.32-.09.94c-.08.8-.17,1.58-.25,2.35-.18,1.61-.35,3.13-.43,4.65A64.55,64.55,0,0,0,208,86a52.41,52.41,0,0,1,0,31.31C204.22,129.67,204.32,142.1,208.29,155.29ZM255,138.08l-.18.86-.85.22a19.76,19.76,0,0,1-4.8.65,10.88,10.88,0,0,1-7.15-2.36c-3.1-2.61-4.5-7.21-4-13.31l.08-1,1-.26c4.84-1.28,9.45-.29,12.63,2.73S256.07,133.14,255,138.08Zm-.2,25.47-.22.86-.86.18a17.1,17.1,0,0,1-3.57.39A12.53,12.53,0,0,1,241,161.3c-3-3.07-4-7.54-2.82-12.25l.19-.75.72-.25a12.14,12.14,0,0,1,12.39,2.33C254.86,153.52,256.13,158.44,254.83,163.55ZM227.54,285.77a12.58,12.58,0,0,1-9.72,4.22,16.48,16.48,0,0,1-3.51-.39l-.84-.19-.22-.82A13.13,13.13,0,0,1,215.88,276c3-3.2,7.43-4.42,12.55-3.41l.77.15.28.73A11.91,11.91,0,0,1,227.54,285.77ZM215.77,201.2c3.17-3.44,8-4.66,13.16-3.36l.87.22.18.88c1,5.26-.17,9.83-3.42,12.88a12.2,12.2,0,0,1-8.42,3.2,14.38,14.38,0,0,1-3.75-.5l-.73-.19-.24-.72A12.19,12.19,0,0,1,215.77,201.2Zm.56,49.22c2.58-2.45,6.56-3.32,12.15-2.66l.89.11.28.84a12,12,0,0,1-11.55,16.23,16.64,16.64,0,0,1-4-.53l-1-.25-.07-1C212.57,257.12,213.67,253,216.33,250.42Zm10.31-13.66a11.56,11.56,0,0,1-8,3.21,13,13,0,0,1-4.83-1l-.84-.34-.05-.9c-.31-5.91.86-10,3.58-12.48s6.59-3.22,12.09-2.46l.86.12.28.83A12.26,12.26,0,0,1,226.64,236.76ZM237,113.4l-.25.63-.65.19c-5.8,1.75-5.8,1.75-5.8,8,0,.76,0,1.53,0,2.29a41.19,41.19,0,0,0,.17,6,32.45,32.45,0,0,0,1.19,5.09c.21.72.41,1.42.59,2.09l.11.43-.16.42c-2.86,7.57-2.81,15.37.19,24.53l.19.58-.3.54c-2.81,5.11-2.88,12.19-.23,23.66l.38,1.62-17.92,1.29.48-1.91c.19-.74.39-1.47.59-2.19.41-1.5.8-2.92,1-4.35,1.93-11.2,1.64-20.27-.91-28.52a60.24,60.24,0,0,1-.08-36.17c3.17-10.54,3-21.71-.61-35.17a69.12,69.12,0,0,1-1.75-12.59c-.12-1.6-.25-3.26-.42-4.86a8,8,0,0,1,.27-2.5c.1-.46.21-1,.32-1.62l.32-2,24.88,13.42-.27,1.07c-.15.59-.28,1.15-.4,1.67-.26,1.08-.5,2.1-.82,3.09A16.9,16.9,0,0,0,238.64,92c3.58,6.23,3.51,12.08-.19,17.89a10.73,10.73,0,0,0-.95,2.21C237.34,112.56,237.19,113,237,113.4Zm1.12,85.65.19-.75.72-.25a12.14,12.14,0,0,1,12.39,2.33c3.42,3.13,4.68,8.05,3.39,13.17l-.21.85-.87.19a17.1,17.1,0,0,1-3.57.39,12.58,12.58,0,0,1-9.23-3.69C238,208.21,237,203.75,238.14,199.05Zm-.06,25.09.17-.77.75-.26a12.13,12.13,0,0,1,12.46,2.28c3.46,3.19,4.73,8.09,3.42,13.11l-.21.81-.82.2a15.37,15.37,0,0,1-3.76.47,12.57,12.57,0,0,1-8.89-3.43C238.13,233.54,237,229,238.08,224.14Zm16.85,38.93-.11,1-1,.2a22.37,22.37,0,0,1-4.29.45,11.3,11.3,0,0,1-7.95-2.75c-2.93-2.71-4.07-7.12-3.39-13.11l.13-1.16,1.17-.09c6-.46,10.18.6,12.73,3.24S255.56,257.44,254.93,263.07Zm0,25.11-.17.71-.68.27a12,12,0,0,1-4.47.86,11.91,11.91,0,0,1-7.77-2.88c-3.61-3.11-5-8-3.72-13.3l.2-.86.86-.2c5-1.16,9.68,0,12.77,3.1A12.92,12.92,0,0,1,255,288.18Zm0-100-.19.85-.86.21a20.35,20.35,0,0,1-4.65.59,11,11,0,0,1-7.38-2.46c-3-2.63-4.38-7.21-3.86-13.25l.09-1,1-.25c5-1.21,9.6-.14,12.73,3S256.1,183.33,255,188.14Zm4.29-67.2-13.55-7.19.34-1.12c.28-.91.6-1.83.92-2.75a33.62,33.62,0,0,0,1.66-5.93A21.24,21.24,0,0,0,246,90c-2-3.42-3.53-7.56-.28-12.31l.71-1L270.6,89.53l-.4,1.14c-2.14,6.17-.93,11.25,3.71,15.53l.9.84-5.31,7.68Zm6.78,80c3.25-3.28,8.12-4.38,13.05-2.93l1,.28.05,1c.32,6.07-.86,10.24-3.6,12.76-2,1.83-4.73,2.73-8.33,2.73a26.12,26.12,0,0,1-3.71-.28l-.9-.12-.26-.87A12.37,12.37,0,0,1,266.06,200.9Zm-.68-24.24c3.05-3.66,7.91-5.12,13.34-4l1,.2.13,1c.74,5.72-.1,9.79-2.57,12.43-2.2,2.36-5.63,3.52-10.45,3.52q-1,0-2-.06l-.89-.05-.34-.84A12,12,0,0,1,265.38,176.66Zm11.87,109.65c-2.19,2.34-5.59,3.48-10.37,3.48-.66,0-1.34,0-2.05-.06l-.89-.05-.33-.83a11.93,11.93,0,0,1,1.73-12.16c3-3.66,7.9-5.13,13.38-4l1,.2.12,1C280.57,279.6,279.73,283.67,277.25,286.31ZM276.54,262c-2,1.83-4.75,2.74-8.36,2.74a27.44,27.44,0,0,1-3.7-.27l-.9-.12-.26-.87A12.38,12.38,0,0,1,266,250.92c3.24-3.29,8.12-4.39,13.06-3l1,.28.05,1C280.44,255.31,279.27,259.48,276.54,262Zm.24-25.4A12.11,12.11,0,0,1,268.1,240a15.84,15.84,0,0,1-3.62-.44l-.76-.18-.26-.74a12.22,12.22,0,0,1,2.36-12.51c3.19-3.42,8.08-4.67,13.08-3.35l.83.22.19.84C281,228.88,279.9,233.52,276.78,236.6Zm.44-75.44a12.2,12.2,0,0,1-9.29,3.85,18,18,0,0,1-3.29-.32l-.78-.15-.29-.74a12,12,0,0,1,1.94-12.31c3.06-3.54,8-5,13.22-3.81l.83.19.22.81A13.07,13.07,0,0,1,277.22,161.16Zm1.68-38.36.83.22.19.84c1.12,5,0,9.66-3.13,12.74A12.14,12.14,0,0,1,268.1,140a15.82,15.82,0,0,1-3.62-.43l-.76-.18-.26-.74a12.24,12.24,0,0,1,2.36-12.52C269,122.73,273.9,121.48,278.9,122.8Zm25.1-13h-.14a6.11,6.11,0,0,1-4-10.64,6.2,6.2,0,0,1,10.39,4.6A6.47,6.47,0,0,1,304,109.85Z"/></g></g></svg>